<svg xmlns="http://www.w3.org/2000/svg" width="300" height="300" viewBox="0 0 300 300">
    <g fill="none" fill-rule="evenodd">
        <path stroke="#4E4E4E" stroke-dasharray="4" d="M149 231c45.287 0 82-36.713 82-82s-36.713-82-82-82-82 36.713-82 82 36.713 82 82 82z"/>
        <g transform="translate(107 114)">
            <path stroke="#707070" stroke-width="1.5" d="M37.893 6.752L18.33 17.516c-2.226 1.225-4.08 4.364-4.08 6.91v21.147c0 2.553 1.85 5.684 4.08 6.911l19.563 10.764c2.24 1.233 5.972 1.234 8.214 0L65.67 52.484c2.226-1.225 4.08-4.364 4.08-6.91V24.426c0-2.553-1.85-5.684-4.08-6.911L46.107 6.752c-2.24-1.233-5.972-1.234-8.214 0z"/>
            <path stroke="#30A462" stroke-width="1.5" d="M41.062 24.093l-7.906 4.312c-.749.409-1.406 1.513-1.406 2.366v8.458c0 .85.657 1.957 1.406 2.366l7.906 4.312c.766.418 2.109.419 2.876 0l7.906-4.312c.749-.409 1.406-1.513 1.406-2.366v-8.458c0-.85-.657-1.957-1.406-2.366l-7.906-4.312c-.766-.418-2.109-.419-2.876 0z"/>
            <circle cx="71" cy="19" r="19" fill="#333435"/>
            <circle cx="70.5" cy="18.5" r="6.5" stroke="#2087FF" stroke-width="2"/>
        </g>
        <path stroke="#484848" stroke-dasharray="2,6" d="M150 299c82.29 0 149-66.71 149-149S232.29 1 150 1 1 67.71 1 150s66.71 149 149 149z"/>
    </g>
</svg>
