<svg xmlns="http://www.w3.org/2000/svg" xmlns:xlink="http://www.w3.org/1999/xlink" width="300" height="300" viewBox="0 0 300 300">
    <defs>
        <ellipse id="a" cx="16.19" cy="63.6" rx="3.593" ry="3.6"/>
        <ellipse id="b" cx="63.294" cy="16.4" rx="1.996" ry="2"/>
    </defs>
    <g fill="none" fill-rule="evenodd">
        <path stroke="#434343" stroke-dasharray="2,6" d="M150 299c82.29 0 149-66.71 149-149S232.29 1 150 1 1 67.71 1 150s66.71 149 149 149z"/>
        <path stroke="#4E4E4E" stroke-dasharray="4" d="M150 232c45.287 0 82-36.713 82-82s-36.713-82-82-82-82 36.713-82 82 36.713 82 82 82z"/>
        <g transform="translate(86 87)">
            <path stroke="#707070" stroke-width=".8" d="M62.816 16.494c-26.129 0-47.31 20.911-47.31 46.706s21.181 46.706 47.31 46.706c18.272 0 34.125-10.227 42.007-25.199m1.452-2.825a49.53 49.53 0 0 0 2.904-10.06m.425-3.592c.2-1.651.302-3.33.302-5.03" opacity=".4"/>
            <path stroke="#FFF" stroke-width=".8" d="M106.275 81.882a49.53 49.53 0 0 0 2.904-10.06" opacity=".23"/>
            <use fill="#333435" xlink:href="#a"/>
            <ellipse cx="16.19" cy="63.6" stroke="#333435" stroke-width="3.2" rx="5.193" ry="5.2"/>
            <use stroke="#6E6E6E" stroke-width="1.6" xlink:href="#a"/>
            <use fill="#333435" xlink:href="#b"/>
            <ellipse cx="63.294" cy="16.4" stroke="#333435" stroke-width="1.6" rx="2.796" ry="2.8"/>
            <use stroke="#30A462" stroke-width=".8" xlink:href="#b"/>
            <ellipse cx="119.206" cy="2" fill="#FF5780" rx="1.996" ry="2"/>
            <ellipse cx="3.992" cy="119" fill="#4A90E2" rx="3.992" ry="4"/>
            <g>
                <path fill="#30A462" d="M60.148 44.71c1.575-.87 4.132-.868 5.704 0l12.296 6.784c1.575.87 2.852 3.035 2.852 4.832v13.348c0 1.8-1.28 3.964-2.852 4.832L65.852 81.29c-1.575.87-4.132.868-5.704 0l-12.296-6.784C46.277 73.636 45 71.47 45 69.674V56.326c0-1.8 1.28-3.964 2.852-4.832l12.296-6.784z"/>
                <path fill="#2A2A2A" d="M60.86 49.042c1.182-.664 3.09-.668 4.28 0l9.22 5.177c1.182.664 2.14 2.291 2.14 3.654v10.254c0 1.355-.95 2.986-2.14 3.654l-9.22 5.177c-1.182.664-3.09.668-4.28 0l-9.22-5.177c-1.182-.664-2.14-2.291-2.14-3.654V57.873c0-1.355.95-2.986 2.14-3.654l9.22-5.177z"/>
                <g transform="translate(68 36)">
                    <circle cx="14" cy="14" r="14" fill="#2A2A2A"/>
                    <circle cx="12.656" cy="14.344" r="6.094" stroke="#2087FF" stroke-width="3"/>
                </g>
            </g>
        </g>
    </g>
</svg>
