<svg viewBox="0 0 14 14" version="1.1" xmlns="http://www.w3.org/2000/svg" xmlns:xlink="http://www.w3.org/1999/xlink" class="icon icon-v6 icon-v6-cart"><path d="M4.083 12.542c0 .81.648 1.458 1.459 1.458C6.352 14 7 13.352 7 12.542c0-.81-.648-1.459-1.458-1.459-.81 0-1.459.648-1.459 1.459zm4.667 0c0 .81.648 1.458 1.458 1.458.81 0 1.459-.648 1.459-1.458 0-.81-.648-1.459-1.459-1.459-.81 0-1.458.648-1.458 1.459zm5.234-9.56a.226.226 0 0 0-.049-.244.31.31 0 0 0-.227-.113H3.775L3.29.665A.885.885 0 0 0 2.431 0H.875A.871.871 0 0 0 0 .875c0 .486.389.875.875.875h.875l1.782 7.21c.089.393.44.67.843.665h6.984c.4 0 .748-.275.842-.664l1.783-5.98v.001z" fill-rule="evenodd"></path></svg>