<svg viewBox="0 0 14 14" version="1.1" xmlns="http://www.w3.org/2000/svg" xmlns:xlink="http://www.w3.org/1999/xlink" class="icon icon-v6 icon-v6-search"><path d="M8.75 0a5.25 5.25 0 1 1 0 10.5 5.162 5.162 0 0 1-2.803-.81l-3.954 3.97a1.18 1.18 0 0 1-.826.34c-.308 0-.6-.113-.827-.34a1.174 1.174 0 0 1 0-1.653l3.97-3.954A5.162 5.162 0 0 1 3.5 5.25C3.5 2.35 5.85 0 8.75 0zm0 8.75c1.928 0 3.5-1.572 3.5-3.5s-1.572-3.5-3.5-3.5a3.506 3.506 0 0 0-3.5 3.5c0 1.928 1.572 3.5 3.5 3.5z" fill-rule="evenodd"></path></svg>